<svg width="16" height="16" viewBox="0 0 16 16" fill="none" xmlns="http://www.w3.org/2000/svg">
<path d="M8.78438 -0.000244141C4.8057 -0.000244141 1.56876 3.23669 1.56876 7.21538C1.56876 8.62538 1.9756 9.94194 2.6776 11.0545L0.469664 13.2625C-0.156555 13.8887 -0.156555 14.9039 0.469664 15.5301C1.09588 16.1563 2.11113 16.1563 2.73729 15.5301L4.94523 13.3222C6.05788 14.0242 7.37445 14.431 8.78438 14.431C12.7631 14.431 16 11.1941 16 7.21538C16 3.23669 12.7631 -0.000244141 8.78438 -0.000244141ZM8.78438 12.8275C5.68985 12.8275 3.17223 10.3099 3.17223 7.21538C3.17223 4.12085 5.68982 1.60322 8.78438 1.60322C11.8789 1.60322 14.3965 4.12085 14.3965 7.21538C14.3965 10.3099 11.879 12.8275 8.78438 12.8275Z" fill="white"/>
</svg>
