<svg width="17" height="15" viewBox="0 0 17 15" fill="none" xmlns="http://www.w3.org/2000/svg">
<path d="M15.1572 0.623596C15.1572 0.623596 16.6142 0.0175964 16.4928 1.48931C16.4523 2.09532 16.0881 4.21632 15.8048 6.51048L14.8335 13.3064C14.8335 13.3064 14.7525 14.3019 14.024 14.4751C13.2955 14.6482 12.2028 13.8691 12.0004 13.6959C11.8385 13.5661 8.96505 11.6182 7.95323 10.6659C7.66992 10.4062 7.34614 9.88675 7.99369 9.28075L12.2433 4.9522C12.7289 4.43276 13.2146 3.22076 11.191 4.69248L5.52492 8.80463C5.52492 8.80463 4.87737 9.23747 3.66323 8.84791L1.03253 7.98219C1.03253 7.98219 0.0612036 7.33291 1.72056 6.6836C5.76777 4.64916 10.7458 2.57144 15.1572 0.623596Z" fill="white"/>
</svg>
