<svg width="19" height="12" viewBox="0 0 19 12" fill="none" xmlns="http://www.w3.org/2000/svg">
<path d="M18.6188 10.0833C18.5961 10.0322 18.575 9.98983 18.5553 9.95589C18.2306 9.3444 17.61 8.59384 16.6939 7.70399L16.6745 7.68361L16.6649 7.67362L16.6551 7.66338H16.6452C16.2295 7.24902 15.9662 6.97042 15.8559 6.82778C15.6542 6.55606 15.609 6.28102 15.7193 6.00234C15.7972 5.79179 16.0898 5.34714 16.5964 4.66777C16.8629 4.30772 17.0739 4.01916 17.2298 3.80176C18.3539 2.2394 18.8412 1.24103 18.6917 0.806256L18.6336 0.704656C18.5946 0.643489 18.4939 0.587532 18.3317 0.5365C18.1691 0.485575 17.9612 0.477153 17.7078 0.511091L14.9011 0.531361C14.8556 0.514517 14.7907 0.516087 14.7061 0.5365C14.6216 0.556913 14.5794 0.567155 14.5794 0.567155L14.5305 0.592671L14.4917 0.623326C14.4592 0.643596 14.4235 0.679247 14.3845 0.730208C14.3457 0.78099 14.3132 0.840586 14.2873 0.908498C13.9817 1.7304 13.6343 2.49456 13.2444 3.20094C13.004 3.62215 12.7832 3.98719 12.5815 4.29627C12.3802 4.60524 12.2112 4.83289 12.0749 4.97881C11.9384 5.12488 11.8151 5.2419 11.7045 5.33029C11.594 5.41872 11.5096 5.45609 11.4512 5.44242C11.3927 5.42875 11.3376 5.41519 11.2854 5.40163C11.1945 5.34046 11.1214 5.25728 11.0662 5.152C11.0109 5.04672 10.9736 4.91422 10.9541 4.75459C10.9347 4.59486 10.9232 4.45747 10.92 4.34195C10.9169 4.22657 10.9183 4.06338 10.9249 3.85283C10.9317 3.64217 10.9347 3.49964 10.9347 3.42491C10.9347 3.16675 10.9395 2.88657 10.9492 2.58431C10.959 2.28204 10.967 2.04255 10.9736 1.86611C10.9802 1.6895 10.9833 1.50265 10.9833 1.30566C10.9833 1.10866 10.9719 0.954177 10.9492 0.842049C10.9268 0.730064 10.8924 0.621363 10.8471 0.51598C10.8016 0.410704 10.7349 0.329268 10.6473 0.271455C10.5596 0.213714 10.4506 0.167892 10.3209 0.133847C9.97649 0.0523746 9.53796 0.00830157 9.00508 0.00144973C7.79669 -0.0121112 7.02023 0.0694684 6.67588 0.246082C6.53944 0.320703 6.41597 0.422659 6.30558 0.551631C6.1886 0.701122 6.17229 0.782703 6.25674 0.796121C6.64662 0.857181 6.92263 1.00325 7.08508 1.23417L7.14362 1.35654C7.18916 1.44483 7.23462 1.60114 7.28013 1.82525C7.32556 2.04937 7.35488 2.29728 7.36778 2.56886C7.40021 3.06479 7.40021 3.48932 7.36778 3.84248C7.33525 4.19578 7.30453 4.47081 7.27521 4.6678C7.24589 4.86479 7.20206 5.02442 7.14362 5.14665C7.08508 5.26891 7.04613 5.34364 7.02661 5.37076C7.00712 5.39788 6.99087 5.41498 6.97797 5.42168C6.89352 5.45552 6.80569 5.47275 6.71479 5.47275C6.62375 5.47275 6.51336 5.42515 6.38344 5.33001C6.25356 5.23486 6.11876 5.10418 5.97905 4.93774C5.83934 4.77126 5.68177 4.53862 5.50629 4.23978C5.33094 3.94094 5.149 3.58775 4.96058 3.1802L4.80468 2.88465C4.70723 2.69451 4.5741 2.41765 4.40517 2.05433C4.23614 1.69086 4.08673 1.33927 3.95685 0.999642C3.90493 0.857002 3.82693 0.748408 3.72299 0.67368L3.67421 0.643025C3.64179 0.615903 3.58973 0.587104 3.51832 0.556413C3.44681 0.525758 3.37219 0.503775 3.29416 0.49025L0.623844 0.51052C0.350972 0.51052 0.165826 0.575149 0.0683375 0.704227L0.0293216 0.765287C0.00983077 0.799296 0 0.853612 0 0.928375C0 1.0031 0.0194909 1.09482 0.0585067 1.20341C0.448324 2.16124 0.872242 3.08499 1.33026 3.9748C1.78828 4.86462 2.18629 5.58138 2.52405 6.12446C2.86188 6.66793 3.20623 7.18086 3.5571 7.66299C3.90797 8.14529 4.14022 8.45437 4.25385 8.59016C4.36763 8.7262 4.45699 8.82791 4.52195 8.89582L4.76563 9.14031C4.92156 9.30336 5.15054 9.49864 5.45266 9.72614C5.75486 9.95378 6.08941 10.1779 6.45649 10.3988C6.82364 10.6194 7.25077 10.7994 7.73811 10.9386C8.22538 11.078 8.69965 11.1339 9.16098 11.1069H10.2818C10.5091 11.0864 10.6813 11.0117 10.7983 10.8827L10.8371 10.8316C10.8632 10.7911 10.8876 10.7281 10.9101 10.6434C10.9329 10.5585 10.9442 10.4649 10.9442 10.3632C10.9376 10.0712 10.9588 9.80797 11.0075 9.57365C11.056 9.3394 11.1114 9.16279 11.1733 9.04385C11.2352 8.92501 11.305 8.82473 11.3828 8.74344C11.4607 8.66196 11.5162 8.61261 11.5487 8.59562C11.5811 8.57853 11.6069 8.56693 11.6264 8.55997C11.7823 8.50566 11.9659 8.55826 12.1772 8.71803C12.3884 8.87765 12.5865 9.07475 12.7718 9.309C12.9569 9.54346 13.1794 9.80651 13.4393 10.0985C13.6993 10.3907 13.9266 10.6078 14.1215 10.7507L14.3163 10.8729C14.4464 10.9545 14.6153 11.0292 14.8233 11.0972C15.0309 11.165 15.2127 11.182 15.3689 11.1481L17.8637 11.1074C18.1105 11.1074 18.3025 11.0647 18.4387 10.9799C18.5751 10.895 18.6562 10.8015 18.6823 10.6997C18.7084 10.5979 18.7098 10.4823 18.6873 10.3532C18.6642 10.2243 18.6414 10.1342 18.6188 10.0833Z" fill="white"/>
</svg>
