<svg width="14" height="14" viewBox="0 0 14 14" fill="none" xmlns="http://www.w3.org/2000/svg">
<path fill-rule="evenodd" clip-rule="evenodd" d="M10.7575 9.82656C10.5994 10.2771 9.97069 10.6498 9.46931 10.7588C9.12609 10.8322 8.67853 10.8902 7.17047 10.2613C5.47668 9.55505 3.12469 7.03944 3.12469 5.3654C3.12469 4.51318 3.61294 3.52082 4.46672 3.52082C4.87753 3.52082 4.96809 3.52888 5.10328 3.85523C5.26144 4.23972 5.64731 5.18702 5.69325 5.28413C5.88291 5.68249 5.50031 5.9157 5.22271 6.26253C5.13412 6.36691 5.03372 6.47979 5.14594 6.67401C5.2575 6.86428 5.64337 7.49718 6.21037 8.0052C6.94275 8.66188 7.53666 8.87152 7.74928 8.96071C7.90744 9.02677 8.09644 9.01138 8.21194 8.88718C8.35828 8.72797 8.54006 8.46382 8.72512 8.20353C8.85572 8.01723 9.02176 7.99396 9.19566 8.06003C9.31313 8.10099 10.8061 8.79875 10.8691 8.9104C10.9157 8.99166 10.9157 9.37601 10.7575 9.82656ZM6.93881 0.500488H6.93553C3.31762 0.500488 0.375 3.46277 0.375 7.10485C0.375 8.35778 0.723254 9.53218 1.32933 10.5309C1.50319 10.8174 1.56168 11.1641 1.45575 11.482C1.1864 12.2904 1.94995 13.062 2.7611 12.8011L2.83352 12.7779C3.14645 12.6772 3.48558 12.7296 3.77274 12.8895C4.71239 13.413 5.79008 13.7092 6.93881 13.7092C10.5567 13.7092 13.5 10.7469 13.5 7.10485C13.5 3.46277 10.5567 0.500488 6.93881 0.500488Z" fill="white"/>
</svg>
