<svg xmlns="http://www.w3.org/2000/svg" xmlns:xlink="http://www.w3.org/1999/xlink"><symbol fill="currentColor" viewBox="0 0 16 16" id="search"><path d="M8.784 0C4.806 0 1.57 3.237 1.57 7.215c0 1.41.407 2.727 1.109 3.84L.47 13.262a1.603 1.603 0 1 0 2.267 2.268l2.208-2.208a7.172 7.172 0 0 0 3.84 1.109c3.978 0 7.215-3.237 7.215-7.216C16 3.237 12.763 0 8.784 0Zm0 12.828a5.619 5.619 0 0 1-5.612-5.613 5.619 5.619 0 0 1 5.612-5.612 5.619 5.619 0 0 1 5.612 5.612 5.618 5.618 0 0 1-5.612 5.613Z"/></symbol><symbol fill="currentColor" viewBox="0 0 17 15" id="telegram"><path d="M15.157.624s1.457-.606 1.336.865c-.04.606-.405 2.727-.688 5.021l-.971 6.796s-.082.996-.81 1.17c-.728.172-1.821-.607-2.024-.78-.162-.13-3.035-2.078-4.047-3.03-.283-.26-.607-.78.04-1.385l4.25-4.329c.486-.52.972-1.731-1.052-.26L5.525 8.805s-.648.432-1.862.043l-2.63-.866s-.972-.65.688-1.298C5.768 4.649 10.746 2.57 15.157.624Z"/></symbol><symbol fill="currentColor" viewBox="0 0 19 12" id="vk"><path d="M18.619 10.083a1.35 1.35 0 0 0-.064-.127c-.324-.612-.945-1.362-1.861-2.252l-.02-.02-.01-.01-.009-.01h-.01c-.415-.415-.679-.694-.79-.836-.2-.272-.246-.547-.136-.826.078-.21.37-.655.877-1.334.267-.36.478-.649.634-.866C18.354 2.239 18.84 1.24 18.692.806l-.058-.101c-.04-.062-.14-.117-.302-.168-.163-.051-.37-.06-.624-.026L14.9.531a.349.349 0 0 0-.195.005l-.127.031-.049.026-.038.03a.441.441 0 0 0-.108.107.707.707 0 0 0-.097.178 16.989 16.989 0 0 1-1.043 2.293c-.24.421-.46.786-.662 1.095-.202.31-.37.537-.507.683-.137.146-.26.263-.37.351-.111.089-.195.126-.254.112a6.945 6.945 0 0 1-.166-.04.668.668 0 0 1-.219-.25 1.157 1.157 0 0 1-.112-.397c-.02-.16-.03-.298-.034-.413a8.926 8.926 0 0 1 .005-.49c.007-.21.01-.352.01-.427 0-.258.005-.538.014-.84l.025-.719c.006-.177.01-.363.01-.56 0-.197-.012-.352-.035-.464a1.638 1.638 0 0 0-.102-.326.542.542 0 0 0-.2-.245 1.1 1.1 0 0 0-.326-.137C9.976.052 9.538.008 9.005 0 7.797-.012 7.02.07 6.675.246c-.136.075-.259.177-.37.306-.116.15-.133.23-.048.244.39.061.666.207.828.438l.059.123c.045.088.09.244.136.468.046.224.075.472.088.744.032.496.032.92 0 1.273-.033.354-.063.629-.093.826a1.71 1.71 0 0 1-.248.703.171.171 0 0 1-.049.05.702.702 0 0 1-.263.052c-.091 0-.202-.048-.332-.143a2.382 2.382 0 0 1-.404-.392c-.14-.167-.297-.4-.473-.698a12.365 12.365 0 0 1-.545-1.06l-.156-.295a25.9 25.9 0 0 1-.4-.83A16.39 16.39 0 0 1 3.957 1a.67.67 0 0 0-.234-.326L3.674.643a1 1 0 0 0-.38-.153L.624.51C.35.51.166.576.068.705L.03.765A.342.342 0 0 0 0 .928c0 .075.02.167.059.275.39.958.813 1.882 1.271 2.772.458.89.856 1.606 1.194 2.15.338.543.682 1.056 1.033 1.538.351.482.583.791.697.927.114.136.203.238.268.306l.244.244c.156.163.385.359.687.586.302.228.636.452 1.003.673.368.22.795.4 1.282.54.487.139.962.195 1.423.168h1.12c.228-.02.4-.095.517-.224l.04-.051a.69.69 0 0 0 .072-.189 1.08 1.08 0 0 0 .034-.28 3.504 3.504 0 0 1 .063-.79 2.14 2.14 0 0 1 .166-.53 1.3 1.3 0 0 1 .376-.447.625.625 0 0 1 .077-.036c.156-.054.34-.002.551.158.211.16.41.357.595.591.185.234.407.498.667.79.26.292.488.509.682.652l.195.122c.13.082.3.156.507.224.208.068.39.085.546.051l2.495-.04c.246 0 .438-.043.575-.128.136-.085.217-.178.243-.28a.824.824 0 0 0 .005-.347 1.328 1.328 0 0 0-.068-.27Z"/></symbol><symbol fill="currentColor" viewBox="0 0 14 14" id="whatsapp"><path fill-rule="evenodd" clip-rule="evenodd" d="M10.758 9.827c-.159.45-.787.823-1.289.932-.343.073-.79.131-2.299-.498-1.693-.706-4.045-3.222-4.045-4.896 0-.852.488-1.844 1.342-1.844.41 0 .501.008.636.334.158.385.544 1.332.59 1.43.19.397-.193.63-.47.978-.089.104-.19.217-.077.411.112.19.497.823 1.064 1.331.733.657 1.327.867 1.54.956.157.066.346.05.462-.074.146-.159.328-.423.513-.683.13-.187.297-.21.47-.144.118.041 1.611.739 1.674.85.047.082.047.466-.111.917ZM6.938.5h-.002C3.318.5.375 3.463.375 7.105c0 1.253.348 2.427.954 3.426.174.286.233.633.127.951a1.04 1.04 0 0 0 1.305 1.32l.073-.024c.312-.1.652-.048.939.111.94.524 2.017.82 3.166.82 3.618 0 6.561-2.962 6.561-6.604S10.557.5 6.939.5Z"/></symbol></svg>