<svg xmlns="http://www.w3.org/2000/svg" xmlns:xlink="http://www.w3.org/1999/xlink"><symbol fill="currentColor" viewBox="0 0 17 15" id="telegram"><path d="M15.157.624s1.457-.606 1.336.865c-.04.606-.405 2.727-.688 5.021l-.971 6.796s-.082.996-.81 1.17c-.728.172-1.821-.607-2.024-.78-.162-.13-3.035-2.078-4.047-3.03-.283-.26-.607-.78.04-1.385l4.25-4.329c.486-.52.972-1.731-1.052-.26L5.525 8.805s-.648.432-1.862.043l-2.63-.866s-.972-.65.688-1.298C5.768 4.649 10.746 2.57 15.157.624Z"/></symbol><symbol fill="currentColor" viewBox="0 0 14 14" id="whatsapp"><path fill-rule="evenodd" clip-rule="evenodd" d="M10.758 9.827c-.159.45-.787.823-1.289.932-.343.073-.79.131-2.299-.498-1.693-.706-4.045-3.222-4.045-4.896 0-.852.488-1.844 1.342-1.844.41 0 .501.008.636.334.158.385.544 1.332.59 1.43.19.397-.193.63-.47.978-.089.104-.19.217-.077.411.112.19.497.823 1.064 1.331.733.657 1.327.867 1.54.956.157.066.346.05.462-.074.146-.159.328-.423.513-.683.13-.187.297-.21.47-.144.118.041 1.611.739 1.674.85.047.082.047.466-.111.917ZM6.938.5h-.002C3.318.5.375 3.463.375 7.105c0 1.253.348 2.427.954 3.426.174.286.233.633.127.951a1.04 1.04 0 0 0 1.305 1.32l.073-.024c.312-.1.652-.048.939.111.94.524 2.017.82 3.166.82 3.618 0 6.561-2.962 6.561-6.604S10.557.5 6.939.5Z"/></symbol></svg>